<?xml version="1.0" encoding="utf-8"?>
<!-- Generator: Adobe Illustrator 27.5.0, SVG Export Plug-In . SVG Version: 6.00 Build 0)  -->
<svg version="1.1" xmlns="http://www.w3.org/2000/svg" xmlns:xlink="http://www.w3.org/1999/xlink" x="0px" y="0px"
	 viewBox="0 0 3710 3710" style="enable-background:new 0 0 3710 3710;" xml:space="preserve">
<g id="Background">
	<g>
		<g>
			<rect style="fill:#FFFFFF;" width="3710" height="3710"/>
		</g>
	</g>
</g>
<g id="Illustration">
	<g>
		<path style="fill:#F4F7FA;" d="M3203.934,1638.588c-75.529-494.371-385.197-1101.741-996.979-1165.303
			c0,0-464.494-56.499-922.383,29.131c-271.758,50.821-510.049,202.104-660.83,419.535
			c-150.783,217.431-201.149,482.559-140.023,735.326c39.701,164.174,66.528,334.088,59.165,502.787
			c-12.814,293.604-5.442,567.663,279.495,742.76c254.415,156.343,574.601,294.231,880.062,318.382
			c207.59,16.413,440.388-10.147,640.465-64.193C3362.544,2881.578,3279.463,2132.959,3203.934,1638.588z"/>
		<g>
			<g>
				
					<linearGradient id="SVGID_1_" gradientUnits="userSpaceOnUse" x1="-3462.3259" y1="-3279.2029" x2="-2826.0168" y2="788.6403" gradientTransform="matrix(0.5248 -0.8512 0.8512 0.5248 5083.8101 144.0943)">
					<stop  offset="0" style="stop-color:#FF9085"/>
					<stop  offset="1" style="stop-color:#FB6FBB"/>
				</linearGradient>
				<path style="fill:url(#SVGID_1_);" d="M1184.132,2184.055c142.204-23.624,281.42-60.597,419.853-100.292
					c66.602-19.098,133.246-37.283,200.461-54.098c63.209-15.812,126.368-32.319,187.447-55.191
					c7.449-2.933,14.84-5.999,22.199-9.136c-34.503-125.771-25.884-290.945-240.789-273.866
					c-218.632,17.375-355.684,150.287-456.159-159.524c-100.474-309.812-560.623-762.804-794.23-424.412
					c-134.068,194.205,154.552,375.853,136.692,602.747c-16.971,215.608,118.737,332.842,352.996,363.812
					C1127.565,2089.293,1169.569,2126.897,1184.132,2184.055z"/>
				<g>
					<defs>
						<path id="SVGID_00000081622990229184706790000015297085373034290335_" d="M1919.682,1723.807
							c-12.169-27.409-64.645-38.83-146.378-32.334c-218.632,17.375-355.684,150.287-456.159-159.524
							c-100.474-309.812-560.623-762.804-794.23-424.412c-134.068,194.205,154.552,375.853,136.692,602.747
							c-16.971,215.608,118.737,332.842,352.996,363.812c151.506,20.029,129.52,58.638,150.93,65.338
							C1480.834,2238.718,1963.522,1822.555,1919.682,1723.807z"/>
					</defs>
					<clipPath id="SVGID_00000011002930390305148920000010288527450983849361_">
						<use xlink:href="#SVGID_00000081622990229184706790000015297085373034290335_"  style="overflow:visible;"/>
					</clipPath>
					<g style="clip-path:url(#SVGID_00000011002930390305148920000010288527450983849361_);">
						<g>
							<path style="fill:#FCFDFE;" d="M1245.453,1906.928c93.208,74.476,191.808,139.553,294.65,194.891
								c1.607-0.447,3.214-0.892,4.819-1.34c-422.33-225.448-765.872-612.91-973.907-1118.679l-4.583,1.883
								C719.026,1354.66,953.827,1673.914,1245.453,1906.928z"/>
							<path style="fill:#FCFDFE;" d="M1895.729,2005.632c-35.425-98.32-58.535-216.212-68.755-351.021l-4.94,0.376
								c10.244,135.098,33.405,253.319,68.914,351.995C1892.543,2006.535,1894.137,2006.085,1895.729,2005.632z"/>
							<path style="fill:#FCFDFE;" d="M1205.345,1872.246l1.942-4.557c-197.264-84.071-418.177-38.857-568.765,13.876l1.639,4.677
								C789.922,1833.797,1009.543,1788.796,1205.345,1872.246z"/>
							<path style="fill:#FCFDFE;" d="M867.183,1516.443l4.449-2.178c-106.194-216.976-56.895-465.707-18.059-594.659l-4.743-1.43
								C809.785,1047.825,760.245,1297.947,867.183,1516.443z"/>
						</g>
					</g>
				</g>
			</g>
		</g>
		<g>
			<g>
				
					<linearGradient id="SVGID_00000134942147800222808020000003928357361408405139_" gradientUnits="userSpaceOnUse" x1="-3783.3296" y1="-2847.8367" x2="-3147.2371" y2="1218.6226" gradientTransform="matrix(0.676 -0.7369 0.7369 0.676 5118.1533 580.4587)">
					<stop  offset="0" style="stop-color:#AA80F9"/>
					<stop  offset="0.9964" style="stop-color:#6165D7"/>
				</linearGradient>
				<path style="fill:url(#SVGID_00000134942147800222808020000003928357361408405139_);" d="M1289.521,1989.722
					c-0.418,2.479-0.842,4.975-1.27,7.489c2.406,1.598,4.825,3.183,7.208,4.801
					C1293.433,1997.957,1291.458,1993.858,1289.521,1989.722z"/>
				
					<linearGradient id="SVGID_00000178190227027285478550000010019968556397348793_" gradientUnits="userSpaceOnUse" x1="-3684.6885" y1="-2863.2617" x2="-3048.5989" y2="1203.1796" gradientTransform="matrix(0.676 -0.7369 0.7369 0.676 5118.1533 580.4587)">
					<stop  offset="0" style="stop-color:#AA80F9"/>
					<stop  offset="0.9964" style="stop-color:#6165D7"/>
				</linearGradient>
				<path style="fill:url(#SVGID_00000178190227027285478550000010019968556397348793_);" d="M1522.516,2029.863
					c0.775,0.461,1.542,0.933,2.316,1.393c2.438,1.446,4.881,2.882,7.323,4.321
					C1541.561,2041.116,1554.133,2048.048,1522.516,2029.863z"/>
				
					<linearGradient id="SVGID_00000023985609720106670130000001073292141548031654_" gradientUnits="userSpaceOnUse" x1="-3178.8958" y1="-2960.4951" x2="-2724.3098" y2="-54.3847" gradientTransform="matrix(0.676 -0.7369 0.7369 0.676 5118.1533 580.4587)">
					<stop  offset="0" style="stop-color:#AA80F9"/>
					<stop  offset="0.9964" style="stop-color:#6165D7"/>
				</linearGradient>
				<path style="fill:url(#SVGID_00000023985609720106670130000001073292141548031654_);" d="M1641.044,1468.32
					c-3.448-19.943-59.961-54.667-59.628-199.62c0.714-310.362-248.94-926.045-603.052-685.741
					c-203.228,137.912,6.692,435.965-73.051,658.625c-23.837,66.559-28.101,127.963-16.251,184.026
					c26.641,126.041,135.623,181.369,271.212,288.445c260.641,205.83,267.904,357.869,347.918,342.145
					C1622.415,2033.751,1685.021,1722.754,1641.044,1468.32z"/>
				<g>
					<defs>
						<path id="SVGID_00000134230353956456850880000017568055660690725529_" d="M1534.856,1474.012
							c3.481-76.171,46.381-132.605,46.56-210.171c0.714-310.362-248.94-926.045-603.052-685.741
							c-203.228,137.912,6.692,435.965-73.051,658.625c-75.779,211.585,46.243,371.075,254.961,472.47
							c112.436,54.621,93.294,102.104,126.195,109.522C1424.82,1849.908,1526.02,1667.388,1534.856,1474.012z"/>
					</defs>
					<clipPath id="SVGID_00000130619136787693845750000002777216815243548328_">
						<use xlink:href="#SVGID_00000134230353956456850880000017568055660690725529_"  style="overflow:visible;"/>
					</clipPath>
					<g style="clip-path:url(#SVGID_00000130619136787693845750000002777216815243548328_);">
						<g>
							<path style="fill:#FCFDFE;" d="M2435.178,2151.859c-2.91-7.232-0.015-4.301-0.594-7.461
								c-980.933-225.102-1274.713-687.884-1381.507-1665.92c-0.834,1.656-5.065-2.967-3.631,2.884
								c34.211,391.722,137.569,805.048,363.348,1120.554C1650.16,1933.614,2062.572,2055.846,2435.178,2151.859z"/>
							<path style="fill:#FCFDFE;" d="M1247.658,2207.789c184.246-96.675,568.347-192.681,774.217-198.9
								c0.093-1.743,0.182-3.486,0.287-5.228c-205.885,6.224-592.698,103.007-776.998,199.726
								C1245.993,2204.855,1246.83,2206.32,1247.658,2207.789z"/>
							<path style="fill:#FCFDFE;" d="M2289.675,2117.563c0.201-3.532,1.057-5.012,2.082-4.422
								c-116.017-75.311-169.711-168.868-216.614-306.207c-34.39-100.703-48.788-250.162-39.141-363.921
								c-2.51-2.482-3.918-2.53-5.089-0.041c-8.774,114.228,4.027,264.224,39.307,365.345
								C2118.583,1946.929,2171.793,2041.535,2289.675,2117.563z"/>
							<path style="fill:#FCFDFE;" d="M1385.929,1562.333c0.969-1.348,1.923-2.703,2.887-4.056
								c-155.646-127.379-351.011-168.895-548.284-160.879c0.133,1.734,0.303,3.465,0.435,5.198
								C1036.957,1394.63,1231.279,1435.793,1385.929,1562.333z"/>
							<path style="fill:#FCFDFE;" d="M1162.949,1095.552c1.626-0.242,3.252-0.483,4.88-0.712
								c-20.134-208.723,59.372-412.701,178.735-580.935c-1.352-0.978-2.705-1.952-4.049-2.942
								C1222.479,680.134,1142.456,885.664,1162.949,1095.552z"/>
						</g>
					</g>
				</g>
			</g>
		</g>
		<g>
			<g>
				
					<linearGradient id="SVGID_00000075864844323403253260000007924229390205372555_" gradientUnits="userSpaceOnUse" x1="2416.4666" y1="482.0793" x2="607.7644" y2="4099.4761">
					<stop  offset="0.0036" style="stop-color:#E38DDD"/>
					<stop  offset="1" style="stop-color:#9571F6"/>
				</linearGradient>
				<path style="fill:url(#SVGID_00000075864844323403253260000007924229390205372555_);" d="M2718.531,950.229l-1836.58-52.072
					c-61.586-1.746-111.722,40.171-111.722,93.632v1544.422c0,53.461,50.136,94.952,111.722,92.684l1836.581-67.663
					c53.121-1.957,96.017-43.552,96.017-92.913v-1425.99C2814.549,992.967,2771.653,951.735,2718.531,950.229z"/>
				<path style="opacity:0.74;fill:#FFFFFF;" d="M881.951,2598.116c-41.891,1.495-75.948-26.751-75.948-63.093V992.674
					c0-36.342,34.056-64.876,75.947-63.737l1836.581,49.942c36.185,0.984,65.441,29.052,65.441,62.693v1427.761
					c0,33.642-29.256,61.957-65.44,63.249L881.951,2598.116z"/>
				
					<linearGradient id="SVGID_00000149374664211524456970000007428326107486439580_" gradientUnits="userSpaceOnUse" x1="1625.7703" y1="380.0784" x2="1956.1346" y2="1701.54">
					<stop  offset="0.0036" style="stop-color:#E38DDD"/>
					<stop  offset="1" style="stop-color:#9571F6"/>
				</linearGradient>
				<path style="fill:url(#SVGID_00000149374664211524456970000007428326107486439580_);" d="M2718.531,950.229l-1836.58-52.072
					c-61.586-1.746-111.723,40.171-111.723,93.632v69.438l2044.322,45.214v-64.114
					C2814.551,992.967,2771.654,951.735,2718.531,950.229z"/>
				<path style="fill:#FFFFFF;" d="M967.302,987.557c0,17.366-14.932,31.058-33.377,30.58
					c-18.473-0.479-33.469-14.985-33.469-32.399c0-17.414,14.996-31.104,33.469-30.577
					C952.37,955.686,967.302,970.19,967.302,987.557z"/>
				<path style="fill:#FFFFFF;" d="M1083.809,990.727c0,17.284-14.789,30.911-33.058,30.438
					c-18.297-0.474-33.149-14.909-33.149-32.24c0-17.331,14.853-30.957,33.149-30.435
					C1069.02,959.011,1083.809,973.444,1083.809,990.727z"/>
				<path style="fill:#FFFFFF;" d="M1199.208,993.868c0,17.201-14.65,30.766-32.745,30.297
					c-18.123-0.47-32.834-14.833-32.834-32.081c0-17.248,14.711-30.811,32.834-30.295
					C1184.559,962.304,1199.208,976.666,1199.208,993.868z"/>
				<g style="opacity:0.5;">
					<path style="fill:#FFFFFF;" d="M2004.641,1543.944c-214.51-269.308-585.801-183.624-820.68-481.18
						c-42.36-53.663-71.102-108.266-90.816-158.625l-211.193-5.988c-61.587-1.746-111.723,40.171-111.723,93.632v1544.422
						c0,53.46,50.136,94.952,111.722,92.683l1769.318-65.185c-40.532-50.436-393.556-237.253-484.751-524.087
						C2083.117,1777.304,2134.061,1706.426,2004.641,1543.944z"/>
				</g>
			</g>
		</g>
		<g>
			
				<linearGradient id="SVGID_00000127026771126339680980000010731024706587956875_" gradientUnits="userSpaceOnUse" x1="2305.1538" y1="1234.4645" x2="2047.8116" y2="1481.813">
				<stop  offset="0" style="stop-color:#AA80F9"/>
				<stop  offset="0.9964" style="stop-color:#6165D7"/>
			</linearGradient>
			<path style="fill:url(#SVGID_00000127026771126339680980000010731024706587956875_);" d="M1791.676,2391.045
				c-22.701,0.657-44.844-5.064-64.024-16.558c-58.435-35.03-144.779-92.877-222.461-168.601
				c-98.57-96.09-155.205-193.766-167.596-289.68l-0.194-1.503l-2.405-409.262c0-80.883,52.756-146.537,151.802-189.68
				c81.832-35.643,190.294-53.304,304.877-49.988c113.25,3.278,218.043,26.645,295.607,65.58
				c92.201,46.284,140.579,111.328,140.579,188.444l-2.193,391.052l-0.178,1.438c-11.324,91.847-63.432,186.785-155.53,282.79
				c-73.872,77.001-157.349,138.025-214.678,175.834C1836.316,2383.421,1814.326,2390.39,1791.676,2391.045z"/>
			
				<linearGradient id="SVGID_00000142881164164091242110000009106821513851961217_" gradientUnits="userSpaceOnUse" x1="1540.2911" y1="1290.8263" x2="2415.0596" y2="2721.5674">
				<stop  offset="0" style="stop-color:#AA80F9"/>
				<stop  offset="0.9964" style="stop-color:#6165D7"/>
			</linearGradient>
			<path style="fill:url(#SVGID_00000142881164164091242110000009106821513851961217_);" d="M1814.151,2391.045
				c-22.401,0.657-44.252-5.064-63.179-16.558c-57.663-35.03-142.867-92.877-219.521-168.601
				c-97.268-96.09-153.154-193.766-165.381-289.68l-0.192-1.503l-2.373-409.262c0-80.883,52.058-146.537,149.796-189.68
				c80.752-35.643,187.78-53.304,300.85-49.988c111.752,3.278,215.161,26.645,291.699,65.58
				c90.985,46.284,138.722,111.328,138.722,188.444l-2.165,391.052l-0.175,1.438c-11.173,91.847-62.593,186.785-153.475,282.79
				c-72.896,77.001-155.269,138.025-211.842,175.834C1858.201,2383.421,1836.501,2390.39,1814.151,2391.045z"/>
			
				<linearGradient id="SVGID_00000039106818004456261310000007399350193687142331_" gradientUnits="userSpaceOnUse" x1="2004.147" y1="2105.4331" x2="1293.7081" y2="676.8871">
				<stop  offset="0" style="stop-color:#AA80F9"/>
				<stop  offset="0.9964" style="stop-color:#6165D7"/>
			</linearGradient>
			<path style="fill:url(#SVGID_00000039106818004456261310000007399350193687142331_);" d="M1390.527,1505.735l2.389,407.194
				c26.804,207.761,270.97,375.97,377.312,439.879c30.464,18.308,69.412,17.222,99.661-2.682
				c104.123-68.514,334.916-241.002,359.575-440.756l2.19-389.975C2231.654,1230.067,1390.527,1203.617,1390.527,1505.735z"/>
			
				<linearGradient id="SVGID_00000079457350565612725080000002021407868669675194_" gradientUnits="userSpaceOnUse" x1="1542.1523" y1="868.7023" x2="1770.4695" y2="1574.0408">
				<stop  offset="0" style="stop-color:#AA80F9"/>
				<stop  offset="0.9964" style="stop-color:#6165D7"/>
			</linearGradient>
			<path style="fill:url(#SVGID_00000079457350565612725080000002021407868669675194_);" d="M1820.185,2290.043
				c-1.949,0.045-4.899-0.279-7.88-2.086c-43.786-26.515-128.664-82.054-202.505-154.584
				c-79.759-78.347-125.76-154.519-136.308-226.06l-2.34-400.451c0.097-38.423,30.513-71.307,90.134-97.62
				c66.557-29.375,161.077-44.788,258.9-42.465c96.847,2.299,188.609,21.795,252.18,53.341
				c56.233,27.902,84.661,60.796,84.752,97.891l-2.18,386.587c-9.845,69.229-53.02,143.863-128.824,222.316
				c-71.276,73.766-154.536,132.241-198.055,160.677C1825.082,2289.532,1822.134,2289.997,1820.185,2290.043z"/>
			
				<linearGradient id="SVGID_00000176738325617306011660000006989387694514700710_" gradientUnits="userSpaceOnUse" x1="1725.0742" y1="1882.2335" x2="1305.8594" y2="2791.8525">
				<stop  offset="0" style="stop-color:#AA80F9"/>
				<stop  offset="0.9964" style="stop-color:#6165D7"/>
			</linearGradient>
			<path style="fill:url(#SVGID_00000176738325617306011660000006989387694514700710_);" d="M1810.194,2262.672
				c-44.219-27.235-122.85-79.824-191.454-147.34c-74.955-73.768-118.332-144.555-128.528-210.054l-2.322-398.126
				c0.069-27.472,25.322-52.672,74.864-74.607c63.05-27.918,153.384-42.629,247.438-40.517
				c93.153,2.091,180.955,20.49,241.293,50.344c46.882,23.196,70.6,48.498,70.664,75.292l-2.175,385.165
				c-9.567,63.549-50.481,133.05-122.027,206.961C1931.521,2178.411,1854.212,2233.591,1810.194,2262.672z"/>
			<g>
				<path style="fill:#FFFFFF;" d="M1968.414,1741.417l-297.766,2.649c-22.89,0.204-41.54,18.048-41.54,39.844v190.781
					c0,21.668,18.58,38.464,41.387,37.53l296.715-12.15c21.105-0.864,38.22-18.335,38.328-39.038l0.943-182.253
					C2006.589,1757.962,1989.591,1741.229,1968.414,1741.417z"/>
				
					<linearGradient id="SVGID_00000168797218610843486540000003206333230054440619_" gradientUnits="userSpaceOnUse" x1="1891.0017" y1="1642.1183" x2="1792.1304" y2="1966.4164">
					<stop  offset="0" style="stop-color:#AA80F9"/>
					<stop  offset="0.9964" style="stop-color:#6165D7"/>
				</linearGradient>
				<path style="fill:url(#SVGID_00000168797218610843486540000003206333230054440619_);" d="M1860.274,1850.818
					c0.066-21.071-18.019-37.727-40.1-36.331c-19.551,1.235-35.769,17.024-36.866,35.972c-0.851,14.697,7.098,27.43,19.2,33.893
					c5.144,2.748,7.688,8.507,6.673,14.192l-8.606,48.194c-1.095,6.134,3.767,11.532,10.178,11.307l21.783-0.765
					c6.369-0.222,11.213-5.93,10.161-11.959l-8.327-47.737c-0.995-5.7,1.943-11.351,7.106-14.456
					C1852.699,1876.378,1860.231,1864.362,1860.274,1850.818z"/>
				<path style="fill:#FFFFFF;" d="M1964.232,1722.494c-8.943,0.058-16.174-7.046-16.136-15.871l0.181-41.558
					c0.182-41.74-34.324-76.077-77.33-76.504l-97.192-0.964c-44.508-0.442-81.104,34.264-81.141,77.324l-0.037,42.871
					c-0.008,9.103-7.758,16.532-17.33,16.594c-9.594,0.063-17.385-7.295-17.381-16.436l0.017-43.05
					c0.024-61.541,52.434-110.958,115.937-110.075l97.235,1.352c61.085,0.849,109.879,49.738,109.594,108.906l-0.199,41.393
					C1980.406,1715.264,1973.153,1722.435,1964.232,1722.494z"/>
			</g>
		</g>
		<g>
			
				<linearGradient id="SVGID_00000047746147997921072340000014128993939083608717_" gradientUnits="userSpaceOnUse" x1="3117.6648" y1="3045.6785" x2="3137.0144" y2="3291.9431" gradientTransform="matrix(1 0 0 1 -626.2627 0)">
				<stop  offset="0.0036" style="stop-color:#26264F"/>
				<stop  offset="1" style="stop-color:#444B8C"/>
			</linearGradient>
			<path style="fill:url(#SVGID_00000047746147997921072340000014128993939083608717_);" d="M2526.402,3168.855
				c0,0-69.444,35.289-70.577,40.921c-1.134,5.633,44.659-1.889,63.353-1.076c18.695,0.813,34.073-5.365,32.382-14.218
				c-1.693-8.855-8.236-31.121-8.236-31.121L2526.402,3168.855z"/>
			
				<linearGradient id="SVGID_00000108279743190293107460000003741764000036636833_" gradientUnits="userSpaceOnUse" x1="3163.6213" y1="3183.0974" x2="3160.113" y2="2928.729" gradientTransform="matrix(1 0 0 1 -626.2627 0)">
				<stop  offset="0" style="stop-color:#FFC444"/>
				<stop  offset="0.9964" style="stop-color:#F36F56"/>
			</linearGradient>
			<path style="fill:url(#SVGID_00000108279743190293107460000003741764000036636833_);" d="M2523.862,3140.217l4.224,34.958
				c0,0,10.994,4.376,18.379-0.798l3.15-38.34L2523.862,3140.217z"/>
			
				<linearGradient id="SVGID_00000012462907010037080340000001358785695341219238_" gradientUnits="userSpaceOnUse" x1="3443.5105" y1="3016.8752" x2="3462.9106" y2="3263.7871" gradientTransform="matrix(1 0 0 1 -626.2627 0)">
				<stop  offset="0.0036" style="stop-color:#26264F"/>
				<stop  offset="1" style="stop-color:#444B8C"/>
			</linearGradient>
			<path style="fill:url(#SVGID_00000012462907010037080340000001358785695341219238_);" d="M2850.896,3141.055l8.078,14.499
				c2.259,4.054,2.931,8.935,1.848,13.556c-2.824,12.057-8.465,35.552-10.925,41.68c-3.35,8.344-48.289,13.302-48.289,13.302
				s-4.008-6.305,5.323-13.92c9.329-7.616,15.327-8.813,18.62-20.052c3.292-11.237,5.49-43.026,5.49-43.026L2850.896,3141.055z"/>
			
				<linearGradient id="SVGID_00000070080210372640751790000014791178806572871087_" gradientUnits="userSpaceOnUse" x1="3462.4063" y1="3178.4897" x2="3458.8984" y2="2924.1533" gradientTransform="matrix(1 0 0 1 -626.2627 0)">
				<stop  offset="0" style="stop-color:#FFC444"/>
				<stop  offset="0.9964" style="stop-color:#F36F56"/>
			</linearGradient>
			<path style="fill:url(#SVGID_00000070080210372640751790000014791178806572871087_);" d="M2817.275,3104.213
				c2.951,2.629,17.384,51.611,17.384,51.611s4.672,6.679,13.547-3.178c8.874-9.858,4.016-4.422,4.016-4.422l-1.664-48.175
				L2817.275,3104.213z"/>
			
				<linearGradient id="SVGID_00000017479068169722897220000016395285183607139994_" gradientUnits="userSpaceOnUse" x1="2483.0239" y1="2771.2153" x2="2651.1582" y2="2771.2153">
				<stop  offset="0" style="stop-color:#AB316D"/>
				<stop  offset="1" style="stop-color:#792D3D"/>
			</linearGradient>
			<path style="fill:url(#SVGID_00000017479068169722897220000016395285183607139994_);" d="M2485.654,2437.892
				c-3.664,104.278-3.813,217.573,1.554,338.604c6.041,136.292,18.184,262.259,33.485,376.448c5.689,0.203,11.666,0.237,17.91,0.041
				c4.217-0.131,8.303-0.361,12.251-0.666c7.941-23.678,17.327-54.815,25.732-92.007c8.836-39.108,14.167-74.188,17.965-107.732
				c13.373-118.11-2.299-128.414,8.553-215.945c9.612-77.521,23.28-80.548,39.327-190.612c17.41-119.422,4.449-137.339-1.853-143.81
				C2613.746,2374.66,2550.721,2393.419,2485.654,2437.892z"/>
			
				<linearGradient id="SVGID_00000062190111885519806840000009544889761274496663_" gradientUnits="userSpaceOnUse" x1="2494.6489" y1="2771.2231" x2="2651.1575" y2="2771.2231">
				<stop  offset="0" style="stop-color:#AB316D"/>
				<stop  offset="1" style="stop-color:#792D3D"/>
			</linearGradient>
			<path style="opacity:0.3;fill:url(#SVGID_00000062190111885519806840000009544889761274496663_);" d="M2640.578,2402.215
				c-25.591-26.282-84.116-10.371-145.929,29.739c71.111,85.9,78.863,141.625,70.338,177.78
				c-9.634,40.865-38.926,52.635-38.815,97.318c0.138,54.912,44.461,69.457,43.52,127.564
				c-0.624,38.423-20.101,38.024-24.701,85.481c-5.442,56.151,20.003,75.5,11.762,117.044
				c-3.546,17.873-13.666,41.228-42.488,65.287c2.078,17.06,4.209,33.949,6.43,50.518c5.686,0.2,11.664,0.236,17.908,0.037
				c4.217-0.129,8.303-0.359,12.25-0.664c7.941-23.678,17.328-54.814,25.732-92.006c8.836-39.109,14.167-74.188,17.965-107.733
				c13.372-118.11-2.299-128.414,8.553-215.945c9.612-77.521,23.28-80.55,39.326-190.612
				C2659.839,2426.601,2646.88,2408.685,2640.578,2402.215z"/>
			
				<linearGradient id="SVGID_00000136412733012896429780000010231141593244095393_" gradientUnits="userSpaceOnUse" x1="2529.7007" y1="2752.6851" x2="2868.1731" y2="2752.6851">
				<stop  offset="0" style="stop-color:#AB316D"/>
				<stop  offset="1" style="stop-color:#792D3D"/>
			</linearGradient>
			<path style="fill:url(#SVGID_00000136412733012896429780000010231141593244095393_);" d="M2529.701,2436.141
				c61.229,100.168,127.271,224.832,186.331,374.05c44.633,112.766,77.004,218.641,100.77,312.999
				c3.216,1.665,10.802,4.986,20.497,3.553c13.222-1.955,21.147-11.392,23.218-14.026c9.673-67.642,8.607-124.93,5.324-166.274
				c-2.103-26.472-5.822-70.556-20.914-124.977c-16.904-60.961-28.525-64.387-50.577-128.88
				c-22.89-66.943-17.345-83.647-39.265-167.421c-9.004-34.415-24.078-85.628-48.951-146.887
				C2647.321,2397.564,2588.51,2416.854,2529.701,2436.141z"/>
			
				<linearGradient id="SVGID_00000103963640288752498180000006600520799362409652_" gradientUnits="userSpaceOnUse" x1="2771.3054" y1="1889.6909" x2="3094.7705" y2="2185.7434">
				<stop  offset="0.0036" style="stop-color:#26264F"/>
				<stop  offset="1" style="stop-color:#444B8C"/>
			</linearGradient>
			<path style="fill:url(#SVGID_00000103963640288752498180000006600520799362409652_);" d="M2513.406,2000.915
				c-67.608-44.156-96.578-39.065-116.178-78.722c-19.386-39.227-19.343-101.464,12.739-134.435
				c2.355-2.422,26.792-26.754,59.86-22.585c50.015,6.308,53.698,69.491,109.797,98.437c47.535,24.529,99.373,7.277,134.455-4.399
				c84.478-28.115,97.022-81.295,140.823-72.818c54.885,10.621,59.739,98.87,114.418,104.307
				c36.545,3.633,45.251-34.705,93.295-45.263c56.455-12.409,118.402,24.274,153.144,68.88
				c63.501,81.531,46.774,203.223,7.041,277.506c-32.641,61.027-102.823,131.223-161.946,116.122
				c-46.707-11.93-61.914-70.807-102.096-64.948c-28.569,4.168-29.603,35.201-63.37,51.173
				c-55.451,26.229-123.909-23.761-142.583-37.398c-53.225-38.868-44.748-63.726-113.378-141.647
				C2612.317,2084.344,2573.276,2040.014,2513.406,2000.915z"/>
			
				<linearGradient id="SVGID_00000162318442792966668110000004026150152773871289_" gradientUnits="userSpaceOnUse" x1="1968.972" y1="1805.306" x2="2029.1816" y2="1805.306">
				<stop  offset="0" style="stop-color:#FFC444"/>
				<stop  offset="0.9964" style="stop-color:#F36F56"/>
			</linearGradient>
			<path style="fill:url(#SVGID_00000162318442792966668110000004026150152773871289_);" d="M2029.182,1829.167
				c0,0-11.425-15.987-18.675-27.865c-7.25-11.88-41.092-45.257-41.092-45.257s-2.578,5.296,4.707,13.772
				c7.285,8.475,22.616,22.999,19.091,29.143c-3.525,6.145-13.449,11.562-6.287,23.165c7.162,11.602,19.615,3.679,25.982,12.985
				c6.366,9.306,12.887,19.458,12.887,19.458L2029.182,1829.167z"/>
			<path style="fill:#FFFFFF;" d="M2033.641,1818.735c-7.706,13.037-15.412,26.068-23.119,39.104
				c8.023,26.203,21.851,62.588,46.079,100.977c10.687,16.934,43.82,66.611,99.917,106.561
				c76.364,54.381,215.488,105.116,256.214,47.247c36.341-51.637-22.315-166.094-33.117-186.643
				c-21.862,11.461-57.787,26.661-103.965,30.257c-15.134,1.179-54.524,3.863-98.901-11.379
				C2094.621,1916.651,2049.026,1845.457,2033.641,1818.735z"/>
			<path style="fill:#FFFFFF;" d="M2290.518,1993.448c3.843,19.31,63.905,8.954,76.301,44.006
				c6.651,18.808-7.471,30.756-8.063,62.699c-0.663,35.76,16.382,56.069,29.458,84.201c19.15,41.203,19.221,81.595,19.364,162.371
				c0.202,114.985-25.223,138.107-3.521,175.166c28.249,48.238,96.084,51.317,114.418,52.153
				c62.705,2.848,70.143-30.462,138.182-34.44c77.705-4.543,88.772,37.692,144.343,19.68
				c50.766-16.457,67.848-60.232,107.377-51.168c24.706,5.662,31.258,25.797,54.568,23.617
				c23.424-2.191,47.637-25.405,49.288-49.207c2.052-29.585-30.289-66.856-80.973-66.915c-20.14,7.905-53.525,17.067-90.655,6.89
				c-60.835-16.675-92.477-74.513-127.62-138.753c-24.313-44.439-68.999-126.12-69.531-233.223
				c-0.22-44.168,7.246-57.09-3.52-80.695c-34.96-76.659-170.593-65.219-182.079-64.112
				C2365.436,1914.627,2285.877,1970.13,2290.518,1993.448z"/>
			<g>
				
					<linearGradient id="SVGID_00000039815781339301149440000016516035858897118110_" gradientUnits="userSpaceOnUse" x1="2410.3118" y1="2182.7896" x2="2304.95" y2="2357.4304">
					<stop  offset="0.0036" style="stop-color:#6165D7"/>
					<stop  offset="1" style="stop-color:#AA80F9"/>
				</linearGradient>
				<path style="fill:url(#SVGID_00000039815781339301149440000016516035858897118110_);" d="M2260.217,2089.925l170.363,7.434
					c1.87,0.081,3.509,1.423,4.144,3.392l80.255,248.925c1.151,3.571-2.457,12.502-5.832,12.096l-168.435-25.619
					c-1.712-0.206-3.178-1.467-3.797-3.264l-83.497-232.345C2252.233,2097.099,2256.919,2089.781,2260.217,2089.925z"/>
				
					<linearGradient id="SVGID_00000058569835442704375810000012939005524260917385_" gradientUnits="userSpaceOnUse" x1="2481.9473" y1="2176.5071" x2="2220.9172" y2="2315.4424">
					<stop  offset="0" style="stop-color:#FF9085"/>
					<stop  offset="1" style="stop-color:#FB6FBB"/>
				</linearGradient>
				<path style="fill:url(#SVGID_00000058569835442704375810000012939005524260917385_);" d="M2257.574,2096.017l170.362,7.434
					c1.87,0.081,3.51,1.423,4.144,3.392l80.254,248.925c1.151,3.57-1.439,7.256-4.814,6.851l-169.453-20.374
					c-1.713-0.206-3.179-1.467-3.798-3.264l-81.164-235.985C2251.921,2099.55,2254.275,2095.873,2257.574,2096.017z"/>
				
					<linearGradient id="SVGID_00000116209443656174183230000001310331433558219424_" gradientUnits="userSpaceOnUse" x1="2363.282" y1="1999.697" x2="2332.3027" y2="2101.084">
					<stop  offset="0.0036" style="stop-color:#26264F"/>
					<stop  offset="1" style="stop-color:#444B8C"/>
				</linearGradient>
				<path style="fill:url(#SVGID_00000116209443656174183230000001310331433558219424_);" d="M2304.159,2105.288l-6.565-19.844
					c-0.593-1.791,0.593-3.696,2.302-3.696h62.012c1.069,0,2.015,0.774,2.339,1.914l6.235,21.949
					c0.512,1.802-0.723,3.631-2.413,3.573l-61.682-2.105C2305.387,2107.045,2304.506,2106.336,2304.159,2105.288z"/>
				
					<linearGradient id="SVGID_00000070820927852691362920000014991396290627398838_" gradientUnits="userSpaceOnUse" x1="2471.854" y1="2159.7725" x2="2212.1455" y2="2298.0042">
					<stop  offset="0" style="stop-color:#FF9085"/>
					<stop  offset="1" style="stop-color:#FB6FBB"/>
				</linearGradient>
				<path style="opacity:0.3;fill:url(#SVGID_00000070820927852691362920000014991396290627398838_);" d="M2409.03,2302.361
					c-11.066-40.119,7.146-66.245-11.442-97.423c-26.292-44.097-82.775-25.433-100.336-61.015
					c-4.736-9.595-7.001-23.894-0.612-46.203l-39.066-1.701c-3.299-0.144-5.653,3.529-4.467,6.977l81.164,235.985
					c0.619,1.799,2.084,3.056,3.798,3.264l102.986,12.386C2422.711,2336.743,2413.526,2318.667,2409.03,2302.361z"/>
			</g>
			
				<linearGradient id="SVGID_00000045579498604104946310000002213734156060256444_" gradientUnits="userSpaceOnUse" x1="2438.3699" y1="2267.3955" x2="2533.4368" y2="2267.3955">
				<stop  offset="0" style="stop-color:#FFC444"/>
				<stop  offset="0.9964" style="stop-color:#F36F56"/>
			</linearGradient>
			<path style="fill:url(#SVGID_00000045579498604104946310000002213734156060256444_);" d="M2533.437,2272.549
				c0,0-25.744-5.726-35.672-12.712c-9.929-6.991-20.458-18.217-35.096-17.606c-14.638,0.616-29.369,8.935-22.607,10.847
				c6.763,1.908,19.394,16.906,29.043,22.811c9.65,5.905,31.7,6.438,35.807,6.116c4.106-0.322,20.316,10.578,20.316,10.578
				L2533.437,2272.549z"/>
			
				<linearGradient id="SVGID_00000012444351524783205750000008323724488526986160_" gradientUnits="userSpaceOnUse" x1="2395.2856" y1="2266.7297" x2="3012.3252" y2="2266.7297">
				<stop  offset="0" style="stop-color:#AA80F9"/>
				<stop  offset="0.9964" style="stop-color:#6165D7"/>
			</linearGradient>
			<path style="opacity:0.3;fill:url(#SVGID_00000012444351524783205750000008323724488526986160_);" d="M2931.26,2415.611
				c-20.14,7.905-53.525,17.067-90.655,6.89c-60.835-16.675-92.477-74.513-127.62-138.753
				c-24.313-44.439-68.999-126.12-69.531-233.223c-0.22-44.168,7.246-57.09-3.52-80.695c-1.714-3.753-3.733-7.242-5.903-10.586
				c-26.557,20.071-36.855,40.171-39.865,57.821c-7.325,42.957,27.215,78.083,9.242,115.135
				c-17.216,35.489-59.777,25.671-68.651,56.092c-9.573,32.819,37.53,52.614,39.606,103.326
				c2.493,60.86-62.959,90.665-51.488,131.373c9.943,35.281,64.717,32.739,64.69,51.663c-0.033,22.499,1.693-23.957-64.69-51.663
				c-20.118-8.395-114.803,61.489-126.311,49.224c-2.478,19.829-2.031,33.414,7.492,49.675
				c28.249,48.238,96.084,51.317,114.418,52.153c62.705,2.848,70.143-30.462,138.182-34.44
				c77.705-4.543,88.771,37.692,144.343,19.68c50.766-16.457,67.848-60.232,107.377-51.168
				c24.706,5.662,31.258,25.797,54.568,23.617c23.424-2.191,47.637-25.405,49.288-49.207
				C3014.285,2452.94,2981.943,2415.669,2931.26,2415.611z"/>
			<path style="fill:#FFFFFF;" d="M2532.777,2260.621c-7.922,15.747-15.843,31.489-23.763,47.235
				c12.212,6.689,142.778,75.76,237.417,7.381c11.702-8.453,42.8-30.923,59.562-74.924c18.475-48.497,8.112-93.587,1.389-122.873
				c-16.642-72.496-63.706-148.544-130.481-179.098c-25.506-11.671-55.789-17.575-84.274-23.128
				c-24.156-4.711-62.121-10.482-62.93-6.394c-0.395,1.995,8.427,4.543,14.553,8.418c37.626,23.796-10.146,122.072,34.074,169.203
				c42.361,45.148,97.34,37.693,106.2,78.608c4.12,19.022-4.407,36.135-8.206,43.758
				C2655.123,2251.344,2598.071,2270.382,2532.777,2260.621z"/>
			
				<linearGradient id="SVGID_00000077324655534531519960000009406285651678992527_" gradientUnits="userSpaceOnUse" x1="2676.825" y1="2156.9524" x2="2798.4812" y2="1980.3541" gradientTransform="matrix(0.9787 -0.2054 0.2054 0.9787 -614.8153 371.9818)">
				<stop  offset="0" style="stop-color:#FFC444"/>
				<stop  offset="0.9964" style="stop-color:#F36F56"/>
			</linearGradient>
			<path style="fill:url(#SVGID_00000077324655534531519960000009406285651678992527_);" d="M2444.157,1835.036
				c0,0,15.333,49.839,34.431,57.603c19.097,7.756,49.287,16.664,53.076,20.118c3.788,3.446-101.46,41.658-160.473,24.071l0,0
				c16.815-8.226,21.313-10.856,21.313-10.856c4.49-2.629,12.867-7.523,20.723-15.304c5.349-5.293,13.723-15.148,20.025-31.523
				l-5.516-28.296L2444.157,1835.036z"/>
			
				<linearGradient id="SVGID_00000047776587824035544340000010926944748459209094_" gradientUnits="userSpaceOnUse" x1="2663.0227" y1="2070.281" x2="2878.0354" y2="1940.8344" gradientTransform="matrix(0.9787 -0.2054 0.2054 0.9787 -614.8153 371.9818)">
				<stop  offset="0" style="stop-color:#FFC444"/>
				<stop  offset="0.9964" style="stop-color:#F36F56"/>
			</linearGradient>
			<path style="fill:url(#SVGID_00000047776587824035544340000010926944748459209094_);" d="M2451.042,1856.794
				c0,0-8.888,22.088-29.964,18.698c-18.873-3.035-17.911-56.112-5.09-65.149c4.275-3.013,12.952-4.16,19.391-1.525
				c4.529,1.852,18.008,14.195,15.004,32.276c4.159-2.474,8.301-2.087,9.737,0.138c1.825,2.819-1.131,7.935-1.8,9.093
				C2455.999,1854.343,2452.622,1856.106,2451.042,1856.794z"/>
		</g>
		<g>
			
				<linearGradient id="SVGID_00000141421054174026347660000012082646029853188004_" gradientUnits="userSpaceOnUse" x1="1407.8259" y1="1783.1075" x2="1331.439" y2="1996.1866">
				<stop  offset="0" style="stop-color:#FFC444"/>
				<stop  offset="0.9964" style="stop-color:#F36F56"/>
			</linearGradient>
			<path style="fill:url(#SVGID_00000141421054174026347660000012082646029853188004_);" d="M1389.702,1731.764
				c0,0,9.12-30.836,24.755-31.704c15.635-0.869,74.701-25.19,67.752-11.292c-6.949,13.898-31.348,19.358-31.348,19.358
				s11.808,27.258-14.623,34.062C1409.808,1748.991,1354.423,1780.834,1389.702,1731.764z"/>
			
				<linearGradient id="SVGID_00000060737183554312910160000012579338577502118791_" gradientUnits="userSpaceOnUse" x1="1994.8135" y1="1295.1313" x2="1073.2748" y2="1898.1281" gradientTransform="matrix(0.9666 0.2562 -0.2562 0.9666 158.901 -120.7636)">
				<stop  offset="0" style="stop-color:#FFC444"/>
				<stop  offset="0.9964" style="stop-color:#F36F56"/>
			</linearGradient>
			<path style="fill:url(#SVGID_00000060737183554312910160000012579338577502118791_);" d="M1386.476,1721.556
				c7.25,16.134,14.499,32.26,21.749,48.393c-14.797,27.637-38.699,65.464-75.955,103.41c-16.433,16.738-66.87,65.48-144.215,98.676
				c-105.288,45.187-288.295,73.511-328.615,0.567c-35.978-65.087,58.142-180.99,75.378-201.744
				c25.216,17.257-2.877-23.023,124.335,54.984c16.366,10.036,67.395,15.425,125.598,7.442
				C1292.469,1818.509,1362.391,1748.272,1386.476,1721.556z"/>
			
				<linearGradient id="SVGID_00000052100599170059408760000010709426074069943977_" gradientUnits="userSpaceOnUse" x1="1482.6218" y1="2709.5574" x2="1615.7413" y2="3189.9453" gradientTransform="matrix(-0.9968 0.0799 0.0799 0.9968 2308.6487 65.4365)">
				<stop  offset="0" style="stop-color:#311944"/>
				<stop  offset="1" style="stop-color:#893976"/>
			</linearGradient>
			<path style="fill:url(#SVGID_00000052100599170059408760000010709426074069943977_);" d="M938.269,3166.717
				c0,0-4.273,26.155-3.728,35.462c0.542,9.309,103.836,14.067,104.88,7.093c1.043-6.973-17.074-18.061-29.825-21.974
				c-12.752-3.914-50.073-14.358-50.073-14.358L938.269,3166.717z"/>
			
				<linearGradient id="SVGID_00000051369815513275260630000006089985947540859321_" gradientUnits="userSpaceOnUse" x1="1601.0974" y1="3049.196" x2="1603.0267" y2="2887.137" gradientTransform="matrix(-0.9968 0.0799 0.0799 0.9968 2308.6487 65.4365)">
				<stop  offset="0" style="stop-color:#FFC444"/>
				<stop  offset="0.9964" style="stop-color:#F36F56"/>
			</linearGradient>
			<path style="fill:url(#SVGID_00000051369815513275260630000006089985947540859321_);" d="M963.341,3140.643l-3.294,32.521
				c0,0-11.999,7.929-22.57,1.809l-5.29-35.399L963.341,3140.643z"/>
			
				<linearGradient id="SVGID_00000016066812707097277090000005672418227662981527_" gradientUnits="userSpaceOnUse" x1="1649.2838" y1="2663.3672" x2="1782.4042" y2="3143.7581" gradientTransform="matrix(-0.9968 0.0799 0.0799 0.9968 2308.6487 65.4365)">
				<stop  offset="0" style="stop-color:#311944"/>
				<stop  offset="1" style="stop-color:#893976"/>
			</linearGradient>
			<path style="fill:url(#SVGID_00000016066812707097277090000005672418227662981527_);" d="M753.976,3209.115
				c0,0-4.274,26.154-3.73,35.462c0.543,9.309,103.838,14.067,104.88,7.093c1.044-6.973-17.074-18.061-29.825-21.975
				c-12.751-3.913-50.073-14.358-50.073-14.358L753.976,3209.115z"/>
			
				<linearGradient id="SVGID_00000109005495921567058380000009935472066896519587_" gradientUnits="userSpaceOnUse" x1="1788.491" y1="3051.4231" x2="1790.4204" y2="2889.3625" gradientTransform="matrix(-0.9968 0.0799 0.0799 0.9968 2308.6487 65.4365)">
				<stop  offset="0" style="stop-color:#FFC444"/>
				<stop  offset="0.9964" style="stop-color:#F36F56"/>
			</linearGradient>
			<path style="fill:url(#SVGID_00000109005495921567058380000009935472066896519587_);" d="M779.048,3183.041l-3.295,32.521
				c0,0-11.998,7.93-22.57,1.809l-5.289-35.399L779.048,3183.041z"/>
			
				<linearGradient id="SVGID_00000070832830287001333090000008845021496440209342_" gradientUnits="userSpaceOnUse" x1="1507.6654" y1="2527.9988" x2="1680.2113" y2="2527.9988" gradientTransform="matrix(-0.9968 0.0799 0.0799 0.9968 2308.6487 65.4365)">
				<stop  offset="0" style="stop-color:#444B8C"/>
				<stop  offset="0.9964" style="stop-color:#26264F"/>
			</linearGradient>
			<path style="fill:url(#SVGID_00000070832830287001333090000008845021496440209342_);" d="M944.597,2291.636
				c11.939,24.206,23.879,48.412,35.82,72.617c9.602,138.139,14.374,288.348,11.309,448.988
				c-2.28,119.516-8.668,232.733-17.842,339.007c-16.188-0.741-32.377-1.488-48.565-2.229
				c-23.409-46.459-51.042-116.845-53.585-203.73c-2.653-90.63,24.824-102.663,23.081-189.438
				c-2.259-112.47-49.422-142.478-74.548-277.764c-9.609-51.737-16.078-119.313-8.389-201.298
				C856.118,2282.404,900.357,2287.023,944.597,2291.636z"/>
			
				<linearGradient id="SVGID_00000098936106868478167890000012108826697286201535_" gradientUnits="userSpaceOnUse" x1="1507.6686" y1="2527.9988" x2="1680.2117" y2="2527.9988" gradientTransform="matrix(-0.9968 0.0799 0.0799 0.9968 2308.6487 65.4365)">
				<stop  offset="0" style="stop-color:#444B8C"/>
				<stop  offset="0.9964" style="stop-color:#26264F"/>
			</linearGradient>
			<path style="opacity:0.3;fill:url(#SVGID_00000098936106868478167890000012108826697286201535_);" d="M811.878,2277.79
				c23.892,2.491,47.784,4.983,71.677,7.48c43.008,74.843,55.016,152.743,47.468,187.2c-10.677,48.752-38.922,64.369-37.37,113.315
				c1.536,48.431,30.07,60.99,48.172,118.073c12.53,39.522,9.223,75.861,2.095,146.925
				c-14.356,143.146-48.922,186.922-19.969,233.855c8.228,13.335,23.051,29.216,52.094,41.341
				c-0.711,8.778-1.411,17.584-2.161,26.268c-16.188-0.739-32.377-1.488-48.565-2.227c-23.409-46.464-51.042-116.846-53.585-203.732
				c-2.654-90.631,24.823-102.666,23.081-189.44c-2.259-112.47-49.421-142.475-74.548-277.762
				C810.657,2427.351,804.188,2359.775,811.878,2277.79z"/>
			
				<linearGradient id="SVGID_00000075150261887219821780000000164741752514707856_" gradientUnits="userSpaceOnUse" x1="1605.0791" y1="2552.6458" x2="1867.0157" y2="2552.6458" gradientTransform="matrix(-0.9968 0.0799 0.0799 0.9968 2308.6487 65.4365)">
				<stop  offset="0" style="stop-color:#444B8C"/>
				<stop  offset="0.9964" style="stop-color:#26264F"/>
			</linearGradient>
			<path style="fill:url(#SVGID_00000075150261887219821780000000164741752514707856_);" d="M880.364,2335.214
				c-22.413,122.216-42.209,253.017-57.656,391.736c-18.649,167.493-28.603,325.397-32.516,472.004
				c-17.768,0.506-35.536,1.005-53.304,1.51c-70.016-138.511-74.294-232.419-64.199-293.56c3.89-23.56,14.456-69.758,16.868-138.8
				c1.68-48.128-1.39-84.755-5.225-128.785c-8.408-96.537-18.613-117.612-20.079-191.453c-1.378-69.299-1.662-104.364,18.12-124.832
				C734.491,2269.113,870.078,2330.442,880.364,2335.214z"/>
			
				<linearGradient id="SVGID_00000181790427393683004210000004780168287222449851_" gradientUnits="userSpaceOnUse" x1="2131.5586" y1="2583.6895" x2="1546.9862" y2="1744.4515" gradientTransform="matrix(-0.9968 0.0799 0.0799 0.9968 2308.6487 65.4365)">
				<stop  offset="0" style="stop-color:#FFC444"/>
				<stop  offset="0.9964" style="stop-color:#F36F56"/>
			</linearGradient>
			<path style="fill:url(#SVGID_00000181790427393683004210000004780168287222449851_);" d="M994.016,2389.037
				c17.024-28.248-4.358-55.492-9.226-109.01c-5.516-60.656,17.85-70.756,40.959-171.276
				c15.367-66.853,30.12-131.033,12.511-206.159c-8.438-36.005-22.751-97.073-73.291-126.569
				c-26.081-15.221-61.691-13.699-131.847-10.028c-86.756,4.536-130.133,6.804-162.483,23.839
				c-4.735,2.495-103.152,56.027-109.926,143.285c-6.896,88.81,89.823,100.748,102.723,219.18
				c5.791,53.166-4.532,134.937-11.225,187.974c-6.427,50.925-10.851,63.964-0.801,79.381
				c24.222,37.162,98.376,26.569,246.688,5.391C956.273,2416.737,981.312,2410.116,994.016,2389.037z"/>
			
				<linearGradient id="SVGID_00000001642403273149729930000002717014295269375387_" gradientUnits="userSpaceOnUse" x1="2131.5049" y1="2583.7344" x2="1546.9222" y2="1744.4819" gradientTransform="matrix(-0.9968 0.0799 0.0799 0.9968 2308.6487 65.4365)">
				<stop  offset="0" style="stop-color:#FFC444"/>
				<stop  offset="0.9964" style="stop-color:#F36F56"/>
			</linearGradient>
			<path style="opacity:0.3;fill:url(#SVGID_00000001642403273149729930000002717014295269375387_);" d="M768.36,2133.248
				c-6.271,23.083-28.825,40.324-44.526,96.47c-3.389,12.124-27.532,98.449,3.784,119.698c18.09,12.271,34.328-10.979,78.23-14.016
				c76.076-5.262,112.316,58.676,162.011,41.216c8.621-3.034,20.005-9.492,31.37-24.333c2.263,13.375,1.875,24.99-5.213,36.753
				c-12.703,21.079-37.743,27.7-95.919,36.009c-148.311,21.177-222.466,31.771-246.688-5.391
				c-10.05-15.417-5.626-28.456,0.801-79.381c6.694-53.037,17.016-134.808,11.225-187.974
				c-12.899-118.433-109.619-130.371-102.723-219.18c1.843-23.742,10.577-44.883,22.255-63.283
				C705.662,1919.485,788.072,2060.712,768.36,2133.248z"/>
			
				<linearGradient id="SVGID_00000052070237586961520430000008596650989651119542_" gradientUnits="userSpaceOnUse" x1="1775.5322" y1="2118.2041" x2="1869.8239" y2="2118.2041" gradientTransform="matrix(-0.9968 0.0799 0.0799 0.9968 2308.6487 65.4365)">
				<stop  offset="0" style="stop-color:#FFC444"/>
				<stop  offset="0.9964" style="stop-color:#F36F56"/>
			</linearGradient>
			<path style="fill:url(#SVGID_00000052070237586961520430000008596650989651119542_);" d="M613.391,2307.945l24.548,15.674
				c4.408-5.089,14.612-15.358,30.545-18.864c17.951-3.945,38.556,1.714,39.036,7.442c0.384,4.59-12.163,9.219-14.102,9.936
				c-15.662,5.78-27.282,0.979-33.615,7.275c-2.239,2.227-5.03,6.367-11.448,10.205c-1.685,1.008-3.452,1.898-4.382,2.262
				c-10.453,4.064-28.385-14.134-29.928-15.723L613.391,2307.945z"/>
			
				<linearGradient id="SVGID_00000164489480093629541320000015055848936227238317_" gradientUnits="userSpaceOnUse" x1="2295.4971" y1="2469.4971" x2="1710.9191" y2="1630.2511" gradientTransform="matrix(-0.9968 0.0799 0.0799 0.9968 2308.6487 65.4365)">
				<stop  offset="0" style="stop-color:#FFC444"/>
				<stop  offset="0.9964" style="stop-color:#F36F56"/>
			</linearGradient>
			<path style="fill:url(#SVGID_00000164489480093629541320000015055848936227238317_);" d="M685.915,1985.986
				c17.758-42.531,30.061-107.649,2.013-204.354c-184.813,72.823-279.067,245.459-242.265,382.312
				c30.338,112.818,140.714,167.77,165.336,179.33c5.729-13.041,11.459-26.077,17.188-39.118
				c-28.534-31.775-60.687-78.757-56.139-132.37C578.35,2097.46,649.963,2072.091,685.915,1985.986z"/>
			
				<linearGradient id="SVGID_00000017499999049375075530000014884877930532314521_" gradientUnits="userSpaceOnUse" x1="-653.8744" y1="988.8992" x2="-615.6554" y2="398.2406" gradientTransform="matrix(-0.7795 0.6265 0.6265 0.7795 -1015.7339 622.2045)">
				<stop  offset="0" style="stop-color:#FFC444"/>
				<stop  offset="0.9964" style="stop-color:#F36F56"/>
			</linearGradient>
			<path style="fill:url(#SVGID_00000017499999049375075530000014884877930532314521_);" d="M828.58,1678.5
				c0,0-1.459,32.33-11.495,56.54c-9.069,21.881-56.77,35.636-66.439,40.52c-9.67,4.884,18.115,19.161,46.018,21.967
				c27.901,2.806,107.585-3.53,121.949-14.108c14.364-10.577-11.542-9.781-31.459-17.094c-19.915-7.31-31.43-46.26-27.915-63.938
				C862.753,1684.708,828.58,1678.5,828.58,1678.5z"/>
			
				<linearGradient id="SVGID_00000033354384736199320080000002228929341326758036_" gradientUnits="userSpaceOnUse" x1="1638.9243" y1="1595.2759" x2="1569.0245" y2="1417.7433" gradientTransform="matrix(-0.9968 0.0799 0.0799 0.9968 2308.6487 65.4365)">
				<stop  offset="0" style="stop-color:#444B8C"/>
				<stop  offset="0.9964" style="stop-color:#3E4177"/>
			</linearGradient>
			<path style="fill:url(#SVGID_00000033354384736199320080000002228929341326758036_);" d="M872.711,1666.779
				c14.478-14.225,16.499-15.886,18.076-20.803c6.327-19.734-8.979-46.76-29.055-53.414c-1.045-0.345-14.508-4.655-19.647,1.187
				c-4.365,4.96,2.056,11.811-0.997,21.371c-2.86,8.95-10.619,9.621-24.998,21.358c-11.846,9.665-19.208,15.675-20.906,24.128
				c-3.501,17.427,17.594,42.683,36.269,41.996C838.168,1702.354,839.995,1698.923,872.711,1666.779z"/>
			<g>
				
					<linearGradient id="SVGID_00000080901438299126052230000016094078006235124655_" gradientUnits="userSpaceOnUse" x1="-725.2578" y1="984.2815" x2="-687.0389" y2="393.6232" gradientTransform="matrix(-0.7795 0.6265 0.6265 0.7795 -1015.7339 622.2045)">
					<stop  offset="0" style="stop-color:#FFC444"/>
					<stop  offset="0.9964" style="stop-color:#F36F56"/>
				</linearGradient>
				<path style="fill:url(#SVGID_00000080901438299126052230000016094078006235124655_);" d="M833.28,1705.293
					c0,0,15.39,17.425,38.834,11.665c20.99-5.157,15.634-53.333,0.273-61.029c-5.124-2.566-14.436-2.354-21.438,1.02
					c-4.137,1.994-5.287,4.064-12.108,7.191c-6.292,2.882-8.286,2.483-9.978,4.513c-2.118,2.538-3.029,8,3.605,21.185
					c-4.781-3.384-9.924-4.092-13.08-1.854c-0.504,0.358-1.786,1.61-2.339,3.258C815.047,1697.21,821.249,1703.273,833.28,1705.293z
					"/>
			</g>
		</g>
		<g>
			
				<linearGradient id="SVGID_00000070085008034699174560000004102203287688993428_" gradientUnits="userSpaceOnUse" x1="1949.4277" y1="852.175" x2="2591.0745" y2="852.175">
				<stop  offset="0" style="stop-color:#AB316D"/>
				<stop  offset="1" style="stop-color:#792D3D"/>
			</linearGradient>
			<path style="fill:url(#SVGID_00000070085008034699174560000004102203287688993428_);" d="M2483.758,1018.596
				c24.12,12.246,54.424,1.002,67.684-25.116c13.261-26.117,4.456-57.217-19.664-69.463c-1.249-0.635-2.525-1.168-3.803-1.678
				c4.481-14.452,7.86-29.016,10.126-43.587c1.382-0.004,2.77-0.027,4.179-0.153c27.519-2.453,49.359-27.74,48.784-56.482
				c-0.576-28.742-23.352-50.054-50.871-47.6c-1.438,0.129-2.851,0.356-4.256,0.605c-2.874-14.243-6.813-28.157-11.782-41.623
				c1.266-0.741,2.526-1.506,3.756-2.368c23.543-16.494,31.071-49.05,16.812-72.714c-14.258-23.665-44.904-29.476-68.447-12.982
				c-1.207,0.846-2.341,1.758-3.463,2.685c-9.299-10.28-19.498-19.807-30.533-28.501c0.776-1.272,1.535-2.561,2.222-3.914
				c13.26-26.117,30.589-54.646,6.28-66.513c-56.235-27.452-80.366-3.952-93.626,22.165c-0.687,1.353-1.279,2.727-1.848,4.103
				c-13.531-3.778-27.24-6.39-41.027-7.832c0.086-1.452,0.153-2.907,0.124-4.38c-0.577-28.74,7.951-44.294-19.672-44.831
				c-60.236-1.171-80.559,24.974-79.983,53.714c0.03,1.503,0.156,2.971,0.304,4.43c-13.804,3.935-27.361,8.965-40.556,15.05
				c-0.627-1.282-1.278-2.556-2.023-3.794c-14.259-23.664-44.903-29.475-68.448-12.98c-23.544,16.495-31.071,49.05-16.813,72.714
				c0.73,1.213,1.531,2.346,2.343,3.465c-10.426,10.427-20.191,21.75-29.213,33.896c-1.167-0.732-2.35-1.448-3.6-2.082
				c-24.12-12.246-54.423-1.002-67.683,25.115c-13.261,26.117-4.457,57.217,19.663,69.463c1.25,0.635,2.525,1.168,3.804,1.678
				c-4.481,14.452-7.86,29.016-10.126,43.586c-1.383,0.004-2.77,0.027-4.179,0.152c-27.521,2.454-49.361,27.741-48.785,56.484
				c0.576,28.742,23.353,50.052,50.872,47.599c1.438-0.128,2.851-0.354,4.255-0.604c2.875,14.244,6.813,28.157,11.782,41.624
				c-1.265,0.741-2.525,1.506-3.756,2.368c-23.544,16.494-31.071,49.05-16.812,72.715c14.259,23.665,61.464,34.659,85.007,18.164
				c1.207-0.846-14.218-6.941-13.097-7.867c9.299,10.28,19.499,19.807,30.533,28.502c-0.775,1.272-1.535,2.56-2.221,3.913
				c-13.261,26.117-4.457,57.217,19.663,69.463c24.12,12.247,54.424,1.002,67.684-25.115c0.687-1.353,1.279-2.727,1.848-4.104
				c13.531,3.778,27.24,6.391,41.028,7.832c-0.086,1.452-0.153,2.907-0.124,4.381c0.576,28.74,23.352,50.052,50.871,47.599
				c27.519-2.453,49.36-27.741,48.783-56.483c-0.03-1.502-0.156-2.971-0.305-4.43c13.805-3.934,27.362-8.965,40.557-15.05
				c0.627,1.282,1.278,2.556,2.023,3.792c14.259,23.664,44.903,29.477,68.447,12.981c23.544-16.496,31.072-49.051,16.813-72.716
				c-0.731-1.211-1.531-2.345-2.343-3.463c10.426-10.427,20.19-21.75,29.213-33.896
				C2481.325,1017.247,2482.509,1017.962,2483.758,1018.596z M2183.076,1022.412c-87.575-44.464-119.539-157.381-71.394-252.207
				c48.145-94.827,158.168-135.653,245.743-91.189c87.575,44.464,119.54,157.38,71.395,252.206
				C2380.674,1026.049,2270.652,1066.875,2183.076,1022.412z"/>
			
				<linearGradient id="SVGID_00000108274340628893683780000013668539049680509060_" gradientUnits="userSpaceOnUse" x1="2206.1631" y1="880.6937" x2="2591.0745" y2="880.6937">
				<stop  offset="0" style="stop-color:#AB316D"/>
				<stop  offset="1" style="stop-color:#792D3D"/>
			</linearGradient>
			<path style="fill:url(#SVGID_00000108274340628893683780000013668539049680509060_);" d="M2542.279,878.6
				c27.519-2.454,49.359-27.742,48.784-56.483c-0.576-28.741-23.352-50.053-50.871-47.6c-1.438,0.128-2.851,0.356-4.256,0.605
				c-2.873-14.244-6.813-28.156-11.782-41.623c1.266-0.74,2.526-1.506,3.756-2.369c23.543-16.494,52.671-56.35,36.061-78.426
				c-31.526-41.9-64.152-23.763-87.696-7.269c-1.207,0.846-2.341,1.758-3.462,2.684c-9.299-10.28-19.499-19.806-30.534-28.501
				c0.776-1.272,1.535-2.56,2.222-3.913c7.217-14.214,7.854-29.886,3.088-43.209c-22.74,40.025-45.175,80.218-67.207,120.629
				c69.864,51.195,92.107,152.085,48.437,238.098c-37.006,72.887-110.568,113.815-182.396,108.686
				c-3.204,8.309-6.35,16.664-9.781,24.893c-9.31,22.332-19.888,44.205-30.479,66.048c6.661,1.256,13.351,2.244,20.06,2.947
				c-0.086,1.453-0.153,2.908-0.124,4.38c0.576,28.742,18.026,53.161,67.9,50.516c27.589-1.463,32.331-30.657,31.754-59.399
				c-0.03-1.501-0.156-2.97-0.304-4.429c13.804-3.934,27.361-8.966,40.556-15.05c0.627,1.282,1.278,2.556,2.023,3.792
				c14.259,23.665,63.722,33.72,87.266,17.224c23.545-16.496,12.252-53.293-2.006-76.958c-0.731-1.212-1.531-2.346-2.343-3.464
				c10.426-10.427,20.191-21.75,29.213-33.895c1.167,0.732,2.35,1.448,3.599,2.081c24.12,12.248,54.424,1.002,67.684-25.116
				c13.26-26.116,4.456-57.217-19.664-69.463c-1.25-0.635-2.525-1.168-3.804-1.677c4.481-14.452,7.86-29.018,10.126-43.586
				C2539.482,878.749,2540.869,878.725,2542.279,878.6z"/>
			
				<linearGradient id="SVGID_00000161615758016687276470000015381563916927341731_" gradientUnits="userSpaceOnUse" x1="2480.8601" y1="525.8455" x2="1675.9083" y2="1954.7898">
				<stop  offset="0" style="stop-color:#FF9085"/>
				<stop  offset="1" style="stop-color:#FB6FBB"/>
			</linearGradient>
			<path style="fill:url(#SVGID_00000161615758016687276470000015381563916927341731_);" d="M2509.701,1021.546
				c24.12,12.246,54.423,1.002,67.684-25.116c13.26-26.117,4.456-57.217-19.665-69.463c-1.25-0.634-2.525-1.168-3.804-1.678
				c4.481-14.451,7.86-29.016,10.125-43.587c1.383-0.004,2.771-0.027,4.18-0.153c27.519-2.453,49.359-27.74,48.783-56.482
				c-0.576-28.742-23.351-50.053-50.871-47.6c-1.438,0.129-2.851,0.356-4.256,0.606c-2.874-14.244-6.813-28.157-11.782-41.623
				c1.266-0.741,2.526-1.506,3.756-2.368c23.543-16.494,31.071-49.05,16.813-72.715c-14.259-23.664-44.904-29.476-68.448-12.981
				c-1.206,0.846-2.341,1.758-3.463,2.684c-9.299-10.28-19.498-19.806-30.533-28.501c0.776-1.272,1.535-2.561,2.223-3.914
				c13.26-26.117,4.456-57.217-19.664-69.464c-24.121-12.247-54.423-1.002-67.684,25.115c-0.687,1.353-1.279,2.727-1.848,4.104
				c-13.531-3.778-27.24-6.391-41.026-7.832c0.086-1.452,0.152-2.907,0.124-4.38c-0.577-28.741-23.352-50.052-50.872-47.599
				c-27.519,2.452-49.36,27.741-48.784,56.482c0.031,1.502,0.156,2.971,0.305,4.429c-13.804,3.935-27.36,8.966-40.556,15.051
				c-0.627-1.282-1.278-2.556-2.022-3.794c-14.258-23.664-44.904-29.476-68.448-12.98c-23.544,16.496-31.071,49.051-16.813,72.715
				c0.731,1.212,1.531,2.346,2.344,3.465c-10.426,10.427-20.191,21.749-29.213,33.896c-1.167-0.732-2.35-1.447-3.6-2.081
				c-24.12-12.247-54.423-1.002-67.683,25.115c-13.26,26.117-4.457,57.218,19.663,69.464c1.25,0.635,2.525,1.168,3.805,1.678
				c-4.481,14.452-7.861,29.016-10.126,43.587c-1.382,0.004-2.77,0.027-4.18,0.151c-27.519,2.455-49.36,27.741-48.784,56.484
				c0.576,28.742,23.353,50.052,50.871,47.599c1.438-0.128,2.851-0.354,4.255-0.604c2.874,14.243,6.813,28.157,11.782,41.624
				c-1.265,0.74-2.525,1.505-3.755,2.368c-23.544,16.494-31.071,49.05-16.813,72.714c14.258,23.665,44.904,29.476,68.447,12.982
				c1.207-0.846,2.342-1.758,3.463-2.685c9.3,10.28,19.498,19.807,30.533,28.501c-0.775,1.272-1.535,2.56-2.222,3.914
				c-13.26,26.117-4.457,57.216,19.664,69.463c24.12,12.246,54.423,1.002,67.683-25.116c0.687-1.353,1.279-2.727,1.848-4.103
				c13.531,3.778,27.241,6.39,41.028,7.831c-0.086,1.452-0.153,2.907-0.124,4.38c0.577,28.74,23.353,50.052,50.871,47.599
				c27.519-2.453,49.36-27.741,48.784-56.482c-0.03-1.502-0.156-2.971-0.305-4.43c13.804-3.935,27.361-8.965,40.556-15.05
				c0.627,1.282,1.279,2.556,2.024,3.792c14.258,23.665,44.903,29.478,68.447,12.982c23.544-16.496,31.071-49.05,16.813-72.715
				c-0.731-1.211-1.531-2.345-2.344-3.464c10.426-10.427,20.191-21.75,29.214-33.896
				C2507.268,1020.196,2508.451,1020.912,2509.701,1021.546z M2209.019,1025.361c-87.575-44.464-119.54-157.38-71.395-252.206
				c48.146-94.826,158.168-135.652,245.743-91.188c87.575,44.464,119.54,157.38,71.395,252.206
				C2406.617,1029,2296.594,1069.825,2209.019,1025.361z"/>
		</g>
		<g>
			
				<linearGradient id="SVGID_00000125596326530354509120000008715122925453551271_" gradientUnits="userSpaceOnUse" x1="2553.5046" y1="1252.5613" x2="2998.6238" y2="1252.5613">
				<stop  offset="0" style="stop-color:#AB316D"/>
				<stop  offset="1" style="stop-color:#792D3D"/>
			</linearGradient>
			<path style="fill:url(#SVGID_00000125596326530354509120000008715122925453551271_);" d="M2924.177,1368.01
				c16.732,8.495,37.755,0.695,46.953-17.423c9.199-18.118,3.092-39.692-13.641-48.188c-0.866-0.441-1.751-0.81-2.638-1.164
				c3.109-10.025,5.452-20.129,7.024-30.237c0.959-0.003,1.921-0.019,2.899-0.106c19.09-1.702,34.241-19.244,33.842-39.183
				c-0.4-19.939-16.2-34.723-35.29-33.021c-0.998,0.09-1.978,0.247-2.952,0.42c-1.994-9.881-4.726-19.533-8.173-28.875
				c0.878-0.514,1.752-1.045,2.605-1.643c16.332-11.442,21.554-34.027,11.663-50.443c-9.891-16.417-31.15-20.448-47.483-9.006
				c-0.837,0.587-1.624,1.22-2.402,1.863c-6.451-7.131-13.526-13.74-21.181-19.772c0.538-0.883,1.065-1.776,1.542-2.715
				c9.199-18.118,21.22-37.909,4.356-46.141c-39.011-19.044-55.751-2.742-64.95,15.376c-0.476,0.939-0.887,1.892-1.282,2.847
				c-9.387-2.621-18.897-4.433-28.461-5.433c0.06-1.007,0.106-2.016,0.086-3.039c-0.4-19.938,5.516-30.727-13.647-31.1
				c-41.786-0.812-55.885,17.325-55.485,37.262c0.021,1.043,0.108,2.061,0.211,3.073c-9.576,2.729-18.98,6.219-28.134,10.44
				c-0.435-0.889-0.887-1.773-1.403-2.632c-9.891-16.416-31.15-20.447-47.483-9.004c-16.333,11.443-21.555,34.027-11.663,50.443
				c0.506,0.841,1.062,1.627,1.625,2.403c-7.233,7.234-14.007,15.088-20.266,23.514c-0.809-0.508-1.631-1.004-2.497-1.444
				c-16.732-8.495-37.754-0.695-46.953,17.423c-9.199,18.118-3.092,39.692,13.641,48.188c0.867,0.44,1.752,0.81,2.639,1.164
				c-3.108,10.025-5.453,20.129-7.024,30.236c-0.96,0.003-1.922,0.019-2.899,0.105c-19.091,1.703-34.242,19.244-33.843,39.183
				c0.4,19.939,16.2,34.722,35.29,33.02c0.997-0.089,1.978-0.246,2.952-0.419c1.994,9.881,4.726,19.533,8.173,28.875
				c-0.878,0.514-1.752,1.045-2.605,1.643c-16.333,11.442-21.554,34.027-11.663,50.443c9.892,16.417,42.638,24.043,58.971,12.601
				c0.837-0.587-9.864-4.815-9.086-5.458c6.451,7.131,13.527,13.74,21.181,19.772c-0.538,0.882-1.065,1.776-1.541,2.715
				c-9.199,18.118-3.092,39.692,13.641,48.187c16.732,8.496,37.754,0.695,46.953-17.422c0.477-0.939,0.887-1.892,1.282-2.847
				c9.387,2.621,18.897,4.433,28.461,5.433c-0.06,1.007-0.106,2.017-0.086,3.039c0.4,19.938,16.2,34.722,35.29,33.02
				c19.09-1.702,34.242-19.245,33.842-39.183c-0.021-1.042-0.108-2.061-0.211-3.073c9.576-2.729,18.981-6.219,28.135-10.44
				c0.435,0.889,0.887,1.773,1.404,2.631c9.891,16.416,31.15,20.448,47.483,9.005c16.333-11.443,21.555-34.027,11.664-50.444
				c-0.507-0.84-1.062-1.627-1.625-2.402c7.232-7.234,14.006-15.088,20.265-23.514
				C2922.489,1367.074,2923.31,1367.57,2924.177,1368.01z M2715.59,1370.657c-60.752-30.845-82.926-109.177-49.527-174.959
				c33.399-65.782,109.723-94.104,170.475-63.259c60.752,30.845,82.927,109.177,49.528,174.959
				C2852.666,1373.18,2776.342,1401.502,2715.59,1370.657z"/>
			
				<linearGradient id="SVGID_00000155118839916803307020000013778990672172574854_" gradientUnits="userSpaceOnUse" x1="2731.6052" y1="1272.3451" x2="2998.6238" y2="1272.3451">
				<stop  offset="0" style="stop-color:#AB316D"/>
				<stop  offset="1" style="stop-color:#792D3D"/>
			</linearGradient>
			<path style="fill:url(#SVGID_00000155118839916803307020000013778990672172574854_);" d="M2964.774,1270.893
				c19.09-1.703,34.241-19.245,33.842-39.183c-0.4-19.938-16.2-34.723-35.29-33.021c-0.998,0.089-1.978,0.247-2.952,0.42
				c-1.993-9.881-4.726-19.532-8.173-28.875c0.878-0.513,1.752-1.045,2.605-1.643c16.332-11.442,36.539-39.091,25.016-54.405
				c-21.87-29.066-44.503-16.485-60.836-5.042c-0.837,0.587-1.624,1.219-2.402,1.862c-6.451-7.131-13.527-13.74-21.182-19.771
				c0.538-0.882,1.065-1.776,1.542-2.714c5.007-9.861,5.449-20.732,2.142-29.975c-15.775,27.766-31.338,55.648-46.622,83.682
				c48.466,35.515,63.896,105.503,33.602,165.172c-25.672,50.563-76.703,78.955-126.531,75.397
				c-2.223,5.764-4.405,11.56-6.785,17.269c-6.459,15.492-13.797,30.665-21.144,45.819c4.621,0.871,9.262,1.557,13.916,2.044
				c-0.06,1.008-0.106,2.017-0.086,3.039c0.4,19.938,12.505,36.878,47.103,35.043c19.139-1.015,22.428-21.267,22.029-41.206
				c-0.021-1.042-0.108-2.06-0.211-3.072c9.576-2.729,18.981-6.22,28.134-10.441c0.435,0.889,0.887,1.773,1.404,2.631
				c9.891,16.417,44.205,23.392,60.538,11.949c16.333-11.443,8.5-36.97-1.392-53.386c-0.507-0.841-1.062-1.627-1.625-2.403
				c7.232-7.233,14.007-15.088,20.265-23.513c0.81,0.508,1.63,1.004,2.497,1.443c16.732,8.496,37.755,0.695,46.953-17.423
				c9.199-18.117,3.092-39.692-13.641-48.187c-0.867-0.441-1.752-0.81-2.639-1.164c3.109-10.025,5.452-20.13,7.024-30.236
				C2962.833,1270.996,2963.796,1270.979,2964.774,1270.893z"/>
			
				<linearGradient id="SVGID_00000008844186063770347050000016252527496489158055_" gradientUnits="userSpaceOnUse" x1="2922.1665" y1="1026.182" x2="2363.7605" y2="2017.4601">
				<stop  offset="0" style="stop-color:#FF9085"/>
				<stop  offset="1" style="stop-color:#FB6FBB"/>
			</linearGradient>
			<path style="fill:url(#SVGID_00000008844186063770347050000016252527496489158055_);" d="M2942.174,1370.057
				c16.732,8.495,37.754,0.695,46.953-17.423c9.198-18.118,3.091-39.692-13.642-48.188c-0.867-0.44-1.751-0.81-2.639-1.164
				c3.109-10.025,5.453-20.129,7.024-30.237c0.959-0.003,1.922-0.019,2.9-0.106c19.09-1.702,34.241-19.244,33.842-39.182
				c-0.4-19.939-16.199-34.723-35.29-33.021c-0.998,0.089-1.978,0.247-2.952,0.42c-1.994-9.881-4.726-19.533-8.173-28.875
				c0.878-0.514,1.752-1.045,2.606-1.643c16.332-11.442,21.554-34.027,11.663-50.443c-9.891-16.416-31.15-20.448-47.483-9.005
				c-0.837,0.587-1.624,1.22-2.403,1.862c-6.451-7.131-13.526-13.74-21.181-19.771c0.538-0.882,1.065-1.777,1.542-2.715
				c9.199-18.118,3.091-39.693-13.641-48.188c-16.733-8.496-37.754-0.695-46.953,17.423c-0.477,0.939-0.887,1.892-1.282,2.847
				c-9.386-2.621-18.897-4.433-28.46-5.433c0.06-1.008,0.105-2.016,0.086-3.038c-0.4-19.938-16.2-34.722-35.29-33.02
				c-19.09,1.701-34.241,19.244-33.842,39.182c0.021,1.042,0.108,2.061,0.211,3.073c-9.576,2.73-18.98,6.22-28.134,10.441
				c-0.435-0.889-0.886-1.773-1.403-2.632c-9.891-16.416-31.15-20.448-47.483-9.005c-16.333,11.444-21.554,34.027-11.663,50.443
				c0.507,0.841,1.062,1.628,1.625,2.403c-7.232,7.234-14.007,15.088-20.266,23.514c-0.81-0.508-1.63-1.004-2.497-1.444
				c-16.733-8.496-37.754-0.695-46.953,17.423c-9.199,18.118-3.092,39.693,13.641,48.188c0.867,0.44,1.752,0.81,2.639,1.164
				c-3.108,10.025-5.453,20.129-7.024,30.237c-0.959,0.003-1.922,0.019-2.899,0.105c-19.09,1.703-34.242,19.245-33.842,39.183
				c0.399,19.939,16.2,34.722,35.29,33.02c0.997-0.089,1.978-0.246,2.952-0.419c1.994,9.881,4.726,19.533,8.173,28.875
				c-0.878,0.513-1.752,1.044-2.605,1.643c-16.333,11.442-21.554,34.027-11.663,50.443c9.891,16.417,31.15,20.448,47.482,9.006
				c0.837-0.587,1.625-1.22,2.403-1.863c6.451,7.131,13.526,13.74,21.181,19.772c-0.538,0.882-1.065,1.776-1.542,2.715
				c-9.199,18.118-3.092,39.692,13.641,48.188c16.732,8.495,37.754,0.695,46.953-17.423c0.477-0.938,0.887-1.892,1.282-2.846
				c9.386,2.62,18.897,4.432,28.461,5.433c-0.059,1.007-0.106,2.017-0.086,3.039c0.4,19.938,16.2,34.722,35.29,33.02
				c19.09-1.702,34.242-19.245,33.842-39.182c-0.021-1.042-0.108-2.061-0.211-3.073c9.576-2.729,18.98-6.219,28.134-10.441
				c0.435,0.889,0.887,1.773,1.404,2.63c9.891,16.417,31.15,20.449,47.482,9.006c16.333-11.443,21.554-34.027,11.664-50.444
				c-0.507-0.84-1.062-1.627-1.626-2.403c7.233-7.234,14.007-15.088,20.266-23.514
				C2940.486,1369.12,2941.307,1369.616,2942.174,1370.057z M2733.587,1372.703c-60.752-30.845-82.927-109.177-49.527-174.959
				c33.4-65.782,109.723-94.104,170.476-63.259c60.752,30.845,82.926,109.177,49.528,174.959
				C2870.663,1375.227,2794.339,1403.548,2733.587,1372.703z"/>
		</g>
		<g>
			
				<linearGradient id="SVGID_00000142174760941484769950000017799598983430191243_" gradientUnits="userSpaceOnUse" x1="1434.5558" y1="2425.6089" x2="1372.0658" y2="2266.896">
				<stop  offset="0" style="stop-color:#311944"/>
				<stop  offset="1" style="stop-color:#6B3976"/>
			</linearGradient>
			<path style="fill:url(#SVGID_00000142174760941484769950000017799598983430191243_);" d="M1360.358,2361.977
				c0,0-59.672-24.643-43.467-51.86c16.206-27.217,20.338-15.056,20.338-15.056s-29.919-16.214,11.349-30.402
				c41.268-14.187,50.21,3.185,76.141-6.659c25.931-9.844,44.416,31.538,22.729,43.141c-21.687,11.604-41.966,17.951-41.966,17.951
				S1374.011,2386.041,1360.358,2361.977z"/>
			
				<linearGradient id="SVGID_00000147193467466298688840000000904587881566259104_" gradientUnits="userSpaceOnUse" x1="83.0753" y1="3103.677" x2="96.0368" y2="3336.9873" gradientTransform="matrix(-1 0 0 1 1493.4886 0)">
				<stop  offset="0" style="stop-color:#444B8C"/>
				<stop  offset="0.9964" style="stop-color:#26264F"/>
			</linearGradient>
			<path style="fill:url(#SVGID_00000147193467466298688840000000904587881566259104_);" d="M1377.944,3186.638
				c0,0-1.621,12.897-0.533,17.218c1.089,4.321,38.588,7.444,51.317,5.942c12.729-1.503-7.582-14.504-15.692-16.944
				C1404.927,3190.413,1377.944,3186.638,1377.944,3186.638z"/>
			
				<linearGradient id="SVGID_00000088095790621669703200000014350959333503383449_" gradientUnits="userSpaceOnUse" x1="1377.4113" y1="3178.4968" x2="1396.8206" y2="3178.4968">
				<stop  offset="0" style="stop-color:#FFC444"/>
				<stop  offset="0.9964" style="stop-color:#F36F56"/>
			</linearGradient>
			<path style="fill:url(#SVGID_00000088095790621669703200000014350959333503383449_);" d="M1396.821,3165.122l-3.952,25.876
				c0,0-10.079,4.531-14.924,0.053l-0.533-27.086L1396.821,3165.122z"/>
			
				<linearGradient id="SVGID_00000150072094110408534210000014613088535453548180_" gradientUnits="userSpaceOnUse" x1="285.9514" y1="3090.6428" x2="298.913" y2="3323.9529" gradientTransform="matrix(-1 0 0 1 1493.4886 0)">
				<stop  offset="0" style="stop-color:#444B8C"/>
				<stop  offset="0.9964" style="stop-color:#26264F"/>
			</linearGradient>
			<path style="fill:url(#SVGID_00000150072094110408534210000014613088535453548180_);" d="M1217.155,3163.966
				c0,0,7.957,5.905,5.835,12.976c-2.12,7.071-20.687,35.405-33.919,43.446c-13.231,8.043-9.084-8.712-5.233-19.147
				c3.85-10.435,13.689-33.421,17.531-37.274C1205.209,3160.114,1217.155,3163.966,1217.155,3163.966z"/>
			
				<linearGradient id="SVGID_00000097463398266051833420000009965907047428738214_" gradientUnits="userSpaceOnUse" x1="1192.8655" y1="3166.5286" x2="1231.467" y2="3166.5286">
				<stop  offset="0" style="stop-color:#FFC444"/>
				<stop  offset="0.9964" style="stop-color:#F36F56"/>
			</linearGradient>
			<path style="fill:url(#SVGID_00000097463398266051833420000009965907047428738214_);" d="M1231.467,3135.538
				c-3.846,10.721-7.546,19.535-10.439,26.038c-6.403,14.383-9.902,19.78-13.865,24.459c-3.455,4.075-11.637,12.772-13.836,11.324
				c-2.233-1.468,3.752-12.041,15.289-43.007c1.675-4.495,6.966-18.814,6.966-18.814l0,0H1231.467z"/>
			
				<linearGradient id="SVGID_00000106867844666689820100000008622462035031883657_" gradientUnits="userSpaceOnUse" x1="1348.5785" y1="2931.4685" x2="1478.7924" y2="2931.4685">
				<stop  offset="0" style="stop-color:#444B8C"/>
				<stop  offset="0.9964" style="stop-color:#26264F"/>
			</linearGradient>
			<path style="fill:url(#SVGID_00000106867844666689820100000008622462035031883657_);" d="M1475.352,2687.548
				c2.745,26.948,5.377,68.774,1.441,119.538c-5.132,66.137-18.357,107.988-34.942,178.506
				c-10.136,43.096-23.792,106.525-36.152,185.852c-2.868,1.642-11.304,5.958-22.165,4.346c-6.082-0.903-10.631-3.322-13.316-5.059
				c-32.427-99.087-22.85-160.49-7.2-198.746c6.67-16.308,14.757-29.173,19.08-54.24c5.72-33.164-1.352-51.704-11.438-128.524
				c-7.19-54.753-5.946-63.218-1.161-71.429C1388.617,2684.961,1447.099,2685.603,1475.352,2687.548z"/>
			
				<linearGradient id="SVGID_00000046331197775990465850000018313846432078367633_" gradientUnits="userSpaceOnUse" x1="1206.0839" y1="2927.4956" x2="1395.4681" y2="2927.4956">
				<stop  offset="0" style="stop-color:#444B8C"/>
				<stop  offset="0.9964" style="stop-color:#26264F"/>
			</linearGradient>
			<path style="fill:url(#SVGID_00000046331197775990465850000018313846432078367633_);" d="M1395.468,2699.071
				c-19.864,102.589-39.361,156.469-54.115,186.945c-3.639,7.516-15.779,31.763-27.255,66.526
				c-10.16,30.771-14.394,53.408-16.562,63.37c-6.849,31.446-23.775,77.36-69.319,137.583c-0.568,0.333-8.334,4.725-15.758,0.811
				c-3.758-1.984-5.631-5.143-6.375-6.616c5.954-57.577,12.788-105.959,18.722-143.3c1.245-7.832,6.728-42.097,15.324-87.366
				c3.365-17.717,8.295-43.674,14.2-70.335c7.353-33.202,18.628-78.37,36.005-132.494
				C1325.379,2709.151,1360.425,2704.114,1395.468,2699.071z"/>
			
				<linearGradient id="SVGID_00000012473138502870671390000017397428767594290574_" gradientUnits="userSpaceOnUse" x1="6506.8994" y1="2474.7573" x2="6479.543" y2="3350.1697" gradientTransform="matrix(-1 0 0 1 7920.5562 0)">
				<stop  offset="0" style="stop-color:#FF9085"/>
				<stop  offset="1" style="stop-color:#FB6FBB"/>
			</linearGradient>
			<path style="fill:url(#SVGID_00000012473138502870671390000017397428767594290574_);" d="M1490.227,2582.734
				c-1.265,0.29-6.757,2.116-8.929,25.062c-5.237,55.324,23.568,77.724,16.475,107.727c-6.808,28.799-41.53,42.771-77.27,57.153
				c-23.883,9.611-97.753,39.336-140.714,5.911c-18.08-14.068-20.059-31.052-32.957-93.481
				c-32.772-158.618-65.268-175.469-51.484-209.806c23.669-58.967,106.845-80.163,117.388-84.226
				c112.432-43.323,245.202,36.299,297.667,127.774c6.909,12.044,48.165,83.978,19.178,118.097
				c-17.537,20.641-57.837,23.973-84.432,9.898C1509.616,2628.037,1502.067,2580.02,1490.227,2582.734z"/>
			
				<linearGradient id="SVGID_00000013871397386873236250000010064484639150220476_" gradientUnits="userSpaceOnUse" x1="6304.915" y1="2587.0334" x2="6386.3521" y2="2587.0334" gradientTransform="matrix(-1 0 0 1 7920.5562 0)">
				<stop  offset="0" style="stop-color:#FF9085"/>
				<stop  offset="1" style="stop-color:#FB6FBB"/>
			</linearGradient>
			<path style="fill:url(#SVGID_00000013871397386873236250000010064484639150220476_);" d="M1613.108,2624.692
				c0.351,0,0.708-0.074,1.05-0.23c1.272-0.579,1.834-2.083,1.255-3.357c-0.964-2.109-24.172-51.918-77.803-71.572
				c-1.317-0.487-2.77,0.191-3.25,1.508c-0.482,1.313,0.193,2.77,1.508,3.25c51.586,18.906,74.703,68.421,74.93,68.918
				C1611.225,2624.143,1612.145,2624.692,1613.108,2624.692z"/>
			
				<linearGradient id="SVGID_00000127726244878260300300000015834248161836374691_" gradientUnits="userSpaceOnUse" x1="6421.6553" y1="2613.2061" x2="6710.9063" y2="2613.2061" gradientTransform="matrix(-1 0 0 1 7920.5562 0)">
				<stop  offset="0" style="stop-color:#FF9085"/>
				<stop  offset="1" style="stop-color:#FB6FBB"/>
			</linearGradient>
			<path style="opacity:0.3;fill:url(#SVGID_00000127726244878260300300000015834248161836374691_);" d="M1288.657,2458.245
				c7.096,19.318-14.196,36.057-5.07,57.032c13.081,30.06,65.062,14.631,83.647,44.358c22.026,35.231-28.413,93.018-7.604,112.797
				c9.482,9.013,20.438-2.531,48.16,3.802c39.481,9.018,51.344,40.217,69.706,35.486c5.775-1.488,12.776-6.73,18.666-22.871
				c2.568,8.956,3.79,17.457,1.612,26.673c-6.808,28.799-41.53,42.771-77.27,57.153c-23.884,9.611-97.753,39.336-140.713,5.911
				c-18.08-14.068-20.059-31.052-32.957-93.481c-32.772-158.618-45.467-172.245-31.684-206.583
				c7.515-18.723,19.037-33.951,31.596-46.163C1273.823,2438.341,1284.943,2448.132,1288.657,2458.245z"/>
			
				<linearGradient id="SVGID_00000077291557836438481800000009766810942087650466_" gradientUnits="userSpaceOnUse" x1="6169.145" y1="1308.2402" x2="6146.2222" y2="1503.6895" gradientTransform="matrix(-0.9939 0.1103 0.1103 0.9939 7322.7202 263.1535)">
				<stop  offset="0" style="stop-color:#FFC444"/>
				<stop  offset="0.9964" style="stop-color:#F36F56"/>
			</linearGradient>
			<path style="fill:url(#SVGID_00000077291557836438481800000009766810942087650466_);" d="M1392.545,2367.319
				c-1.816,10.766,5.666,20.914,16.497,22.289c13.12,1.666,29.157,4.2,36.305,7.3c13.121,5.691-37.702,3.076-83.737,7.095
				c-28.739,2.51-50.516,1.67-62.823,0.684c-3.305-0.265-4.055-4.753-1.037-6.118c11.06-5.007,24.06-12.647,39.605-16.378
				c19.245-4.62,40.438-49.939,40.438-49.939l18.413,13.338L1392.545,2367.319z"/>
			
				<linearGradient id="SVGID_00000111874468328697814310000001773849892327050395_" gradientUnits="userSpaceOnUse" x1="1385.6163" y1="2347.0767" x2="1397.1979" y2="2826.553">
				<stop  offset="0" style="stop-color:#FFC444"/>
				<stop  offset="0.9964" style="stop-color:#F36F56"/>
			</linearGradient>
			<path style="fill:url(#SVGID_00000111874468328697814310000001773849892327050395_);" d="M1362.349,2356.681
				c0,0,19.634,22.301,49.608,14.987c26.839-6.551,20.09-68.135,0.472-78.001c-6.543-3.291-18.446-3.039-27.402,1.26
				c-5.29,2.539-6.766,5.184-15.49,9.166c-8.046,3.671-10.595,3.157-12.761,5.748c-2.713,3.24-3.887,10.22,4.564,27.083
				c-6.103-4.333-12.676-5.25-16.713-2.394c-0.645,0.456-2.286,2.052-2.996,4.158
				C1339.06,2346.312,1346.974,2354.074,1362.349,2356.681z"/>
			<g>
				
					<linearGradient id="SVGID_00000096039920151375947910000002490087529261884315_" gradientUnits="userSpaceOnUse" x1="1533.0151" y1="2573.5027" x2="1352.7771" y2="2570.4626">
					<stop  offset="0" style="stop-color:#444B8C"/>
					<stop  offset="0.9964" style="stop-color:#26264F"/>
				</linearGradient>
				<path style="fill:url(#SVGID_00000096039920151375947910000002490087529261884315_);" d="M1535.529,2487.481
					c0.561-6.006-3.858-10.878-9.871-10.878H1395.76c-6.013,0-11.285,4.873-11.775,10.878l-13.834,169.644
					c-0.476,5.842,3.939,10.573,9.863,10.573h127.953c5.923,0,11.167-4.731,11.713-10.573L1535.529,2487.481z"/>
				
					<linearGradient id="SVGID_00000018948792035227909810000000917243110250564766_" gradientUnits="userSpaceOnUse" x1="1457.955" y1="2520.2366" x2="1445.0195" y2="2934.175">
					<stop  offset="0" style="stop-color:#444B8C"/>
					<stop  offset="0.9964" style="stop-color:#26264F"/>
				</linearGradient>
				<path style="fill:url(#SVGID_00000018948792035227909810000000917243110250564766_);" d="M1539.017,2487.477l-15.878,169.658
					c-0.522,5.838-5.768,10.563-11.709,10.563h-127.931c-5.941,0-10.354-4.725-9.867-10.563l13.828-169.658
					c0.451-5.732,5.315-10.423,10.98-10.84c0.277-0.035,0.521-0.035,0.799-0.035h129.909
					C1535.161,2476.603,1539.572,2481.466,1539.017,2487.477z"/>
				
					<linearGradient id="SVGID_00000036234488792027452870000012900091450082157966_" gradientUnits="userSpaceOnUse" x1="1373.5956" y1="2572.1675" x2="1509.379" y2="2572.1675">
					<stop  offset="0" style="stop-color:#444B8C"/>
					<stop  offset="0.9964" style="stop-color:#26264F"/>
				</linearGradient>
				<path style="opacity:0.2;fill:url(#SVGID_00000036234488792027452870000012900091450082157966_);" d="M1509.379,2667.698
					h-125.88c-5.941,0-10.354-4.725-9.867-10.563l13.828-169.658c0.451-5.732,5.315-10.423,10.98-10.84
					c-0.244,0.417-0.382,0.729-0.487,0.903c-2.363,4.934-3.301,10.666-1.25,15.844c5.073,12.612,22.167,15.218,31.304,24.043
					c6.046,5.802,9.243,13.898,9.694,21.958c0.417,7.157-2.016,14.246-1.008,21.367c1.564,10.668,12.021,13.274,21.681,15.184
					c12.473,2.467,25.502,4.065,34.953,12.96c12.228,11.501,8.199,30.471,8.338,44.995c0.07,10.805-1.008,24.46,7.088,33.18
					L1509.379,2667.698z"/>
			</g>
			
				<linearGradient id="SVGID_00000157278056731271035920000012868286392604432817_" gradientUnits="userSpaceOnUse" x1="-402.402" y1="2818.6743" x2="-161.6632" y2="2480.136" gradientTransform="matrix(1 0 0 1 1611.6691 0)">
				<stop  offset="0" style="stop-color:#FFC444"/>
				<stop  offset="0.9964" style="stop-color:#F36F56"/>
			</linearGradient>
			<path style="fill:url(#SVGID_00000157278056731271035920000012868286392604432817_);" d="M1356.71,2583.843l2.68-4.382
				c2.37-9.102,11.114-15.041,20.449-13.89l14.081,1.737c4.406,0.543,7.388,4.735,6.481,9.082
				c-1.31,6.285-4.681,13.804-13.333,13.22c-14.697-0.991-24.092,20.427-24.092,20.427l-5.641-7.945
				C1353.495,2596.682,1353.249,2589.502,1356.71,2583.843z"/>
			
				<linearGradient id="SVGID_00000117658476117192266270000018174365832562823336_" gradientUnits="userSpaceOnUse" x1="6671.3267" y1="2486.8181" x2="6644.856" y2="3333.8816" gradientTransform="matrix(-1 0 0 1 7920.5562 0)">
				<stop  offset="0" style="stop-color:#FF9085"/>
				<stop  offset="1" style="stop-color:#FB6FBB"/>
			</linearGradient>
			<path style="fill:url(#SVGID_00000117658476117192266270000018174365832562823336_);" d="M1356.622,2579.435
				c-3.034,2.759-33.792,29.85-70.792,20.599c-32.223-8.057-52.006-39.386-55.473-65.747
				c-8.242-62.694,55.067-103.097,44.998-115.785c-5.996-7.556-19.785-5.142-41.196,8.058
				c-22.227,13.701-82.288,50.726-95.089,123.381c-1.089,6.176-15.212,92.797,34.238,128.573
				c45.722,33.078,135.28,15.085,195.934-63.157C1365.036,2603.383,1360.829,2591.409,1356.622,2579.435z"/>
			
				<linearGradient id="SVGID_00000021813686981198039870000015819321919263354530_" gradientUnits="userSpaceOnUse" x1="6217.0127" y1="2804.3645" x2="6457.7515" y2="2465.8269" gradientTransform="matrix(-1 0 0 1 7920.5562 0)">
				<stop  offset="0" style="stop-color:#FFC444"/>
				<stop  offset="0.9964" style="stop-color:#F36F56"/>
			</linearGradient>
			<path style="fill:url(#SVGID_00000021813686981198039870000015819321919263354530_);" d="M1545.697,2559.452l-2.237-3.657
				c-1.978-7.595-9.275-12.552-17.066-11.592l-11.751,1.449c-3.677,0.453-6.166,3.952-5.409,7.579
				c1.093,5.245,3.907,11.52,11.127,11.033c12.265-0.827,20.105,17.046,20.105,17.046l4.708-6.63
				C1548.38,2570.167,1548.585,2564.176,1545.697,2559.452z"/>
		</g>
	</g>
</g>
</svg>
